<svg xmlns="http://www.w3.org/2000/svg" viewBox="0 0 150.94 293.7"><defs><style>.cls-1{fill:none;stroke:#2c2163;stroke-miterlimit:10;stroke-width:10px;}.cls-2{fill:#2c2163;}</style></defs><title>logo_purple</title><g id="Layer_2" data-name="Layer 2"><g id="Layer_2-2" data-name="Layer 2"><path class="cls-1" d="M135.94,5H15A10,10,0,0,0,5,15V243.17a10,10,0,0,0,10,10h91.41L97.17,278.7l31.92-25.53h6.85a10,10,0,0,0,10-10V15A10,10,0,0,0,135.94,5Z"/><path class="cls-2" d="M33.44,39.53h27.7q5.24,0,11.49.48a63.88,63.88,0,0,1,12.52,2.25,46.38,46.38,0,0,1,12.08,5.4,36.69,36.69,0,0,1,10.32,9.89,51.22,51.22,0,0,1,7.22,15.66q2.72,9.42,2.72,22.89v6.41A108.71,108.71,0,0,1,115,127.59a64.77,64.77,0,0,1-6.68,17.54,39.57,39.57,0,0,1-9.68,11.39A42.91,42.91,0,0,1,87.18,163a50.89,50.89,0,0,1-12,2.89,98.43,98.43,0,0,1-11.39.7H61.14v55.6H33.44ZM62.53,146.25a32.18,32.18,0,0,0,12.62-2.19,18.05,18.05,0,0,0,8.18-6.85,32.33,32.33,0,0,0,4.38-12,99.73,99.73,0,0,0,1.34-17.59V91.18a72.68,72.68,0,0,0-1.18-14.06,22.56,22.56,0,0,0-4.22-9.79,18.09,18.09,0,0,0-8.18-5.72,38.17,38.17,0,0,0-12.94-1.87H61.14v86.51Z"/></g></g></svg>