<svg xmlns="http://www.w3.org/2000/svg" viewBox="0 0 128.23 127.97"><g id="Layer_2" data-name="Layer 2"><g id="Layer_1-2" data-name="Layer 1"><path d="M64,127.92c-18.12,0-36.24-.06-54.36,0A9.42,9.42,0,0,1,.1,120.11a9.73,9.73,0,0,1-.1-1.43V9.33A9.08,9.08,0,0,1,9.22,0c5.8,0,11.6,0,17.4,0q46,0,92,0a9.32,9.32,0,0,1,9.15,6.51,10.82,10.82,0,0,1,.4,2.7q0,54.74,0,109.48a9.07,9.07,0,0,1-9.16,9.22c-6.84,0-13.68,0-20.52,0Zm4.39-72.11c0-2.24,0-4.47,0-6.71,0-1-.35-1.28-1.33-1.28-5.24,0-10.47,0-15.71,0-1.59,0-1.59,0-1.59,1.58q0,29.16,0,58.32c0,1.24.41,1.56,1.59,1.55,5.39-.05,10.79,0,16.19,0,1.6,0,1.6,0,1.6-1.59,0-9.78,0-19.56,0-29.34a35.15,35.15,0,0,1,.5-6.06c.75-4.07,2.59-7.42,7-8.52a17.31,17.31,0,0,1,4.26-.42c4.56,0,7.41,2.2,8.42,6.63a35.27,35.27,0,0,1,.79,7.46c.09,10.06,0,20.12,0,30.18,0,1.64,0,1.66,1.68,1.66,5.36,0,10.72,0,16.08,0,1.18,0,1.57-.31,1.57-1.54,0-11.66.09-23.32-.1-35a56.55,56.55,0,0,0-1.45-11.58c-1.56-6.79-5.53-11.74-12.48-13.69A48.3,48.3,0,0,0,88,46.39,19.85,19.85,0,0,0,75.6,49,23.09,23.09,0,0,0,68.38,55.81ZM18.79,78.59c0,9.74,0,19.48,0,29.21,0,1.17.37,1.5,1.5,1.49,5.48-.05,11,0,16.43,0,1.05,0,1.48-.27,1.47-1.42q0-29.33,0-58.66c0-1.15-.4-1.4-1.46-1.39-5.44,0-10.87,0-16.31,0-1.6,0-1.6,0-1.6,1.66Zm9.6-38.95a11.11,11.11,0,1,0-11-11.12A11.05,11.05,0,0,0,28.39,39.64Z"/></g></g></svg>